/* XPM */
static char *a3e141aa01c5462ba1dbeebd0ccc7e01gXhjr1mNpYaGgU6v[] = {
/* columns rows colors chars-per-pixel */
"16 16 97 2 ",
"   c None",
".  c #7C0E67",
"X  c #5C266C",
"o  c #61267C",
"O  c #784668",
"+  c #C81E3B",
"@  c #D32E39",
"#  c #C83830",
"$  c #E1761D",
"%  c #D24421",
"&  c #DA4824",
"*  c #D9442A",
"=  c #C2582E",
"-  c #D95D23",
";  c #DE502B",
":  c #DC5D28",
">  c #DC5E2C",
",  c #DE6225",
"<  c #D76D20",
"1  c #DD6D23",
"2  c #C56A3D",
"3  c #C57232",
"4  c #E16322",
"5  c #E3672C",
"6  c #E16A28",
"7  c #E47827",
"8  c #E47C25",
"9  c #98085D",
"0  c #9D1951",
"q  c #B9054F",
"w  c #BD1B42",
"e  c #A60554",
"r  c #AC0453",
"t  c #A60658",
"y  c #A4065A",
"u  c #B10557",
"i  c #B00850",
"p  c #9A2450",
"a  c #8F0960",
"s  c #950C63",
"d  c #900B64",
"f  c #A10A61",
"g  c #C11749",
"h  c #995B56",
"j  c #E58219",
"k  c #E2891B",
"l  c #E18B1A",
"z  c #E0981D",
"x  c #E99D1C",
"c  c #EDBC0C",
"v  c #E9A512",
"b  c #ECAE15",
"n  c #EFB015",
"m  c #EDB414",
"M  c #EDBA1E",
"N  c #D48727",
"B  c #E38222",
"V  c #EB8A28",
"C  c #E19325",
"Z  c #E59428",
"A  c #EE9128",
"S  c #E9A022",
"D  c #EEA722",
"F  c #EDB723",
"G  c #EABB28",
"H  c #F3B622",
"J  c #EEA530",
"K  c #F2C31D",
"L  c #F1D226",
"P  c #F4D22A",
"I  c #F6DE2A",
"U  c #F4CC32",
"Y  c #3D388B",
"T  c #552E82",
"R  c #5C2A80",
"E  c #43378A",
"W  c #473F8B",
"Q  c #453F8F",
"!  c #593288",
"~  c #3D4490",
"^  c #3D4E92",
"/  c #3D4F94",
"(  c #3A5293",
")  c #3B5B98",
"_  c #366393",
"`  c #38699D",
"'  c #386B9C",
"]  c #337397",
"[  c #347CA0",
"{  c #3A79A5",
"}  c #40458B",
"|  c #454895",
" . c #584092",
".. c #42589E",
"X. c #4068A4",
"o. c #2F879A",
"O. c #328BA1",
/* pixels */
"                                ",
"  I P                           ",
"  c m F U                       ",
"  v l l b S C G                 ",
"  x B 1 j $ - < L               ",
"    7 : , 4 & % M               ",
"    5 ; * 6 > # z               ",
"      @ + w g i = K             ",
"        q r e t 0 N H     J     ",
"          u t 9 d p 3 Z A V D   ",
"            f s d . X O h 2 8 n ",
"           .! R o T W }         ",
"      { X...| Q E ^ ' _         ",
"        ' ) / ~ Y ( [ ]         ",
"                    O.o.        ",
"                                "
};
