/* XPM */
static char *_0da596ff63944ad8360e7892cfebeaffcweM5PUDVTLsIsR[] = {
/* columns rows colors chars-per-pixel */
"64 64 221 2 ",
"   c None",
".  c #5E1A5D",
"X  c #7F0E5D",
"o  c #683757",
"O  c #471F6B",
"+  c #7A126D",
"@  c #661C73",
"#  c #761269",
"$  c #4F2168",
"%  c #472679",
"&  c #53247B",
"*  c #552677",
"=  c #4D397D",
"-  c #643877",
";  c #754B6B",
":  c #9E0C3E",
">  c #A61C3C",
",  c #B52631",
"<  c #C51724",
"1  c #C92A26",
"2  c #D72728",
"3  c #CB3327",
"4  c #D63A28",
"5  c #CF203A",
"6  c #DF3934",
"7  c #DB2C35",
"8  c #B75D3B",
"9  c #BD492B",
"0  c #DD561F",
"q  c #E04C1F",
"w  c #E25C1E",
"e  c #D8751E",
"r  c #D36B1F",
"t  c #E66A1D",
"y  c #CC4923",
"u  c #D44428",
"i  c #DE442D",
"p  c #DA4A2B",
"a  c #D84925",
"s  c #DB5223",
"d  c #DC5C26",
"f  c #DB522B",
"g  c #DC5B29",
"h  c #D35725",
"j  c #D94236",
"k  c #DA5638",
"l  c #E3592C",
"z  c #E05D30",
"x  c #E34D2E",
"c  c #CA6425",
"v  c #D46323",
"b  c #DD6B24",
"n  c #DE6728",
"m  c #DC7223",
"M  c #D97D27",
"N  c #D06F38",
"B  c #E46B2B",
"V  c #E26627",
"C  c #E27424",
"Z  c #E37B21",
"A  c #E97C26",
"S  c #E5722B",
"D  c #E97D2A",
"F  c #E77729",
"G  c #8F0F49",
"H  c #9F094F",
"J  c #8C0C5D",
"K  c #870D58",
"L  c #9A0B53",
"P  c #930C5B",
"I  c #99095A",
"U  c #990A57",
"Y  c #951C4E",
"T  c #A80A49",
"R  c #BD034D",
"E  c #BB094A",
"W  c #B71646",
"Q  c #AD0653",
"!  c #A4055E",
"~  c #AB065B",
"^  c #A50959",
"/  c #B30455",
"(  c #BA0352",
")  c #B50259",
"_  c #992850",
"`  c #8D0966",
"'  c #9C0763",
"]  c #930B63",
"[  c #990A63",
"{  c #950E68",
"}  c #A80761",
"|  c #C3044C",
" . c #C30347",
".. c #C10550",
"X. c #CA3942",
"o. c #9B5D56",
"O. c #AF6846",
"+. c #DC831A",
"@. c #DE921F",
"#. c #E68D1B",
"$. c #E6831E",
"%. c #E59B14",
"&. c #E5951C",
"*. c #EB931E",
"=. c #E49A1A",
"-. c #ED9C1C",
";. c #E79916",
":. c #ECAD0B",
">. c #E5A00B",
",. c #F1AF0D",
"<. c #EEB20C",
"1. c #EEBC0A",
"2. c #EAB103",
"3. c #F1BC03",
"4. c #F3BB0B",
"5. c #E4A314",
"6. c #EAA213",
"7. c #EFAA12",
"8. c #EEA61A",
"9. c #ECAE1A",
"0. c #F0B21E",
"q. c #F1B914",
"w. c #D88926",
"e. c #D28032",
"r. c #CC802A",
"t. c #E58424",
"y. c #EB8425",
"u. c #EA8C23",
"i. c #EB8B29",
"p. c #E78727",
"a. c #ED9D23",
"s. c #EB9527",
"d. c #EC9634",
"f. c #EEA324",
"g. c #ECA32A",
"h. c #E1A329",
"j. c #F0AC29",
"k. c #ECBD25",
"l. c #EAB220",
"z. c #F2B829",
"x. c #EFB336",
"c. c #EFC209",
"v. c #ECC004",
"b. c #F3CE0B",
"n. c #F2C609",
"m. c #F4D80E",
"M. c #EDC213",
"N. c #F3C51B",
"B. c #F4CB17",
"V. c #F4D915",
"C. c #F4C42B",
"Z. c #F4CD2D",
"A. c #F4C922",
"S. c #F5D42D",
"D. c #F5DB26",
"F. c #F4C635",
"G. c #F4D335",
"H. c #F4DA33",
"J. c #F6D53D",
"K. c #F6E427",
"L. c #F7E334",
"P. c #F6E33B",
"I. c #F6E932",
"U. c #F0B143",
"Y. c #F7DC47",
"T. c #F7EA44",
"R. c #3C3386",
"E. c #3D368A",
"W. c #3D3B8C",
"Q. c #3E3F81",
"!. c #3C3E90",
"~. c #3B2D84",
"^. c #4D2D82",
"/. c #532C81",
"(. c #5B2C84",
"). c #4D3384",
"_. c #443689",
"`. c #433D8E",
"'. c #4A3A89",
"]. c #533285",
"[. c #54348A",
"{. c #5D358A",
"}. c #51388C",
"|. c #5D3D8E",
" X c #62358A",
".X c #64368A",
"XX c #3C458A",
"oX c #39578E",
"OX c #3E4492",
"+X c #3E4B93",
"@X c #3F4B98",
"#X c #3C5394",
"$X c #395B92",
"%X c #3B5A99",
"&X c #376494",
"*X c #346C96",
"=X c #3A639C",
"-X c #39699D",
";X c #386799",
":X c #337497",
">X c #327C9A",
",X c #35739D",
"<X c #3874A3",
"1X c #367CA3",
"2X c #3775A1",
"3X c #434A97",
"4X c #42539E",
"5X c #425C9D",
"6X c #4C4790",
"7X c #435BA5",
"8X c #4666AC",
"9X c #486FB1",
"0X c #2E859A",
"qX c #2B8B98",
"wX c #2B9297",
"eX c #319A97",
"rX c #2F8EA0",
"tX c #3483A3",
"yX c #328BA3",
"uX c #388BA6",
"iX c #3394A0",
/* pixels */
"                                                                                                                                ",
"                                                                                                                                ",
"                                                                                                                                ",
"                                                                                                                                ",
"                                                                                                                                ",
"                                                                                                                                ",
"                                                                                                                                ",
"                                                                                                                                ",
"                                                                                                                                ",
"                                                                                                                                ",
"                                                                                                                                ",
"                                                                                                                                ",
"                        T.T.                                                                                                    ",
"                        K.T.P.P.                                                                                                ",
"                        m.K.P.L.H.Z.                                                                                            ",
"                          m.V.H.H.Z.k.G.T.                                                                                      ",
"                        v.M.n.n.b.N.l.k.J.Y.J.                                                                                  ",
"                        n.2.:.1.3.3.:.=.N.G.J.F.x.                                                                              ",
"                          1.>.;.@.%.6.&.5.q.A.F.F.g.h.S.                                                                        ",
"                            <.%.+.e r r 5.6.<.,.l.l.s.w.k.I.                                                                    ",
"                            9.9.-.#.M v =.2.%.=.=.-.a.t.c w.V.I.T.                                                              ",
"                          :.%.&.s.*.u.A C 8.2.%.+.e b m b y c v.K.                                                              ",
"                            8.#.e m b v v C #.;.;.*.$.m v h 1 +.V.P.                                                            ",
"                              a.#.Z b w y m t w 0 s s s s s 1 r m.P.                                                            ",
"                              u.i.p.A F B g n V w q 4 4 2 2 < y b.H.                                                            ",
"                              p.C B n g f y b Z C V w q u u 1 1 1.D.                                                            ",
"                                D B g a u 4 p t.Z S t d h f u 1 6.V.H.                                                          ",
"                                  S B V l x i p S t.Z B g f 4 < e b.S.                                                          ",
"                                  z l f i 4 2 3 m p.Z V g f p , y c.A.G.                                                        ",
"                                    l i 6 4 7 2 2 i g k X.W ^ L Y 5.n.S.                                                        ",
"                                      j 6 6 7 5 W T  .| ( ) ) Q : c n.N.Z.                                                      ",
"                                      | E W T T H H / ( ..( / Q T > 5.4.C.C.                d.U.                                ",
"                                        | | R R R ( Q L E R ( ) L Y 8 3.q.z.C.                x.                                ",
"                                          ..( R Q L L U ^ ^ ~ I ] L Y r.,.0.z.z.              s.x.                              ",
"                                            ( / Q / / / U K I ! [ ] G _ w.8.8.j.j.j.j.        f.j.F.                            ",
"                                                ( / ~ U U ! ! K J ] ] K _ M 8.-.a.g.a.a.d.s.i.s.8.z.F.                          ",
"                                                / ~ ~ ~ ~ } J ` ' ` X P K Y 8 @.s.&.u.u.i.i.i.D p.7.q.Z.                        ",
"                                                      ~ ^ [ I } P K ' ` X K . o O.e.p.y.y.A F F S y.,.N.                        ",
"                                                      ~ ~ } } [ ` ' ` + ` # O $ * - ; o.O.N N S V V t.n.B.                      ",
"                                                            [ ] { [ ` ` + O % ].(.- = ].).- ; o.N n V ;.b.                      ",
"                                                        (.& & * @ + + @ % ).).}.}.= = Q.XX            A n.                      ",
"                                                .X.X.X(.(.(./.& & /.^.).].[.}.'.`.XXoXoX                                        ",
"                                        9X9X8X8X7X6X6X|. X{. X{.{.{.[.[.'.3X$X#XoX$X$X                                          ",
"                                yXyX      9X8X8X7X7X4X3X3X_.`.'._._._.R.%X<X<X&X&X&X                                            ",
"                                  tXtXtX1X,X=X5X5X7X4X4X@XOXOXOX!.!.E.R.-X1X1X;X&X&X                                            ",
"                                      ,X2X2X<X-X%X#X#X+X+XOXOXW.E.R.~.R.-X1X1X*X*X*X                                            ",
"                                          -X;X=X=X=X%X#X@X+XOXOXOXW.`.E.%XtX1X,X*X:X                                            ",
"                                                  %X#X#X+X+XOXOXW.E.E.~.#XtXtX>X:X:X                                            ",
"                                                                          uXyXyX>X>X                                            ",
"                                                                            uXrX0X0X0X                                          ",
"                                                                              iXwXqXqX                                          ",
"                                                                                  eXwXwXwX                                      ",
"                                                                                        eX                                      ",
"                                                                                                                                ",
"                                                                                                                                ",
"                                                                                                                                ",
"                                                                                                                                ",
"                                                                                                                                ",
"                                                                                                                                ",
"                                                                                                                                ",
"                                                                                                                                ",
"                                                                                                                                ",
"                                                                                                                                ",
"                                                                                                                                "
};
