/* XPM */
static char *e8d9a078d76944d5e24321b42f5c4dc3sq0q7S860rAUSlle[] = {
/* columns rows colors chars-per-pixel */
"32 32 191 2 ",
"   c None",
".  c #681568",
"X  c #691B73",
"o  c #542562",
"O  c #4E2C7F",
"+  c #452273",
"@  c #54247A",
"#  c #5E2179",
"$  c #57357D",
"%  c #7C4661",
"&  c #7D5065",
"*  c #614176",
"=  c #AC2839",
"-  c #B62039",
";  c #CA1C36",
":  c #C92A26",
">  c #D12827",
",  c #CA3522",
"<  c #D93828",
"1  c #CE283A",
"2  c #D92632",
"3  c #BB7435",
"4  c #D05F1D",
"5  c #E25A1F",
"6  c #DB7C1E",
"7  c #E16A1E",
"8  c #E4701D",
"9  c #C74323",
"0  c #DB4C23",
"q  c #DC452C",
"w  c #D34B28",
"e  c #D54727",
"r  c #C65E25",
"t  c #DC5B24",
"y  c #DC542B",
"u  c #D85A26",
"i  c #CF4036",
"p  c #E25D2C",
"a  c #E0512B",
"s  c #E04A30",
"d  c #D66124",
"f  c #DF6425",
"g  c #DC6826",
"h  c #C97025",
"j  c #DB7123",
"k  c #D56935",
"l  c #C7733D",
"z  c #DA7831",
"x  c #E36B24",
"c  c #E3652A",
"v  c #E46D2A",
"b  c #E37725",
"n  c #E47B25",
"m  c #E5752A",
"M  c #E67D28",
"N  c #E87F2A",
"B  c #8F0B5C",
"V  c #870E5A",
"C  c #940C55",
"Z  c #9E075A",
"A  c #920A5F",
"S  c #99095A",
"D  c #990A52",
"F  c #901055",
"G  c #A5094A",
"H  c #BD034E",
"J  c #B2064F",
"K  c #B01048",
"L  c #BF1749",
"P  c #A70554",
"I  c #AC0554",
"U  c #A3075C",
"Y  c #AC065C",
"T  c #A4085E",
"R  c #B30555",
"E  c #BA0351",
"W  c #B00856",
"Q  c #9F2A44",
"!  c #9D334B",
"~  c #870B63",
"^  c #8C0B64",
"/  c #940B64",
"(  c #9B0B63",
")  c #A10761",
"_  c #C7094A",
"`  c #C61544",
"'  c #CF2B42",
"]  c #AC4640",
"[  c #B04A43",
"{  c #AA624D",
"}  c #DD8A1A",
"|  c #E9891C",
" . c #E28F14",
".. c #E49C15",
"X. c #E5931A",
"o. c #E79718",
"O. c #EAAC0C",
"+. c #E9AF05",
"@. c #EDB30D",
"#. c #F3BE0E",
"$. c #EBA112",
"%. c #EBAB12",
"&. c #EEA41B",
"*. c #EBA61B",
"=. c #F0AF1D",
"-. c #EDB516",
";. c #F1BB1A",
":. c #F1B715",
">. c #E48423",
",. c #E58C23",
"<. c #EC8C23",
"1. c #EB8629",
"2. c #E69420",
"3. c #EE9B2B",
"4. c #E89726",
"5. c #EDA226",
"6. c #EAA625",
"7. c #E9B327",
"8. c #F1B129",
"9. c #F3BB28",
"0. c #EFA534",
"q. c #EFBA31",
"w. c #F1B835",
"e. c #EEC308",
"r. c #F3CA08",
"t. c #F3C912",
"y. c #F2C110",
"u. c #F5D61C",
"i. c #F5DA16",
"p. c #EDCA2A",
"a. c #F3C924",
"s. c #F4C42C",
"d. c #F3CB2E",
"f. c #F6DB2B",
"g. c #F5D22E",
"h. c #F5CC36",
"j. c #F6DE33",
"k. c #F6D639",
"l. c #F6E224",
"z. c #F7E53A",
"x. c #F0AC40",
"c. c #F6D641",
"v. c #F7EC40",
"b. c #3D2F86",
"n. c #3D3689",
"m. c #3E3B8C",
"M. c #3A3786",
"N. c #552D81",
"B. c #5A2A83",
"V. c #4B3A8B",
"C. c #473787",
"Z. c #5A3187",
"A. c #523489",
"S. c #503A8A",
"D. c #5A3F90",
"F. c #642D85",
"G. c #603489",
"H. c #3E428F",
"J. c #3E4385",
"K. c #3A558D",
"L. c #3D4292",
"P. c #3E4B94",
"I. c #3D5495",
"U. c #3A5C95",
"Y. c #3A5F98",
"T. c #39649A",
"R. c #376C9C",
"E. c #396C9F",
"W. c #356794",
"Q. c #35739D",
"!. c #327E9C",
"~. c #337597",
"^. c #367BA3",
"/. c #3870A1",
"(. c #44488C",
"). c #464795",
"_. c #514C99",
"`. c #41539A",
"'. c #405A9B",
"]. c #435AA4",
"[. c #4765AA",
"{. c #4377AC",
"}. c #456BB1",
"|. c #4971B5",
" X c #2D8B9A",
".X c #308099",
"XX c #2D9397",
"oX c #33989D",
"OX c #3383A3",
"+X c #3289A2",
"@X c #3291A0",
/* pixels */
"                                                                ",
"  v.                                                            ",
"  l.z.z.j.                                                      ",
"    i.f.g.a.d.                                                  ",
"  e.e.r.t.;.7.j.c.                                              ",
"    +.O.@.O.o.-.d.h.q.7.                                        ",
"    @.$.} 6 6 ..@.;.9.6.4.p.                                    ",
"    %.*.X.>.j o.O...X.2.} j *.f.v.                              ",
"    %.X.>.>.j j X.$.X.} x d 9 } l.                              ",
"      4.| j d u 8 8 7 f 4 t e 4 u.                              ",
"      <.1.M m c t 7 5 0 < < : , t.z.                            ",
"        m f y e w n 8 c u w e : @.f.                            ",
"          m p a q y b M g t s :  .u.                            ",
"          p y q < > f n g p < - r t.g.                          ",
"            s q < 2 ; 1 ' L Y I = O.a.                          ",
"            _ ` ` K P P R _ R Y G h y.s.              x.        ",
"              _ H H E I D J H Y D Q ..:.s.            0.        ",
"                H R I I I Z S T ( F ] *.=.8.8.        5.w.      ",
"                    R R U C T B ^ B F ] 2.&.5.5.3.3.3.<.6.s.    ",
"                    R Y Y Y S A / V B V ! 3 <.2.<.1.1.N <.:.a.  ",
"                        Y ) ) ) A ( ~ ~ . o % { l 1.m m v | y.  ",
"                            ( / / / ^ . + N.N.O S.(.! { k c $.  ",
"                    F.F.B.N.@ @ X X X O C.A.C.C.J.          |   ",
"              |.}.]._._.G.G.Z.Z.A.A.A.V.(.(.K.I.                ",
"        +XOX  {.}.[.].].).).V.V.V.C.n.T./.W.U.T.                ",
"          OX^.^./.Y.'.`.`.).L.L.m.M.M.E.^.W.W.                  ",
"              E./.E.T.U.I.P.L.m.m.m.n.T.^.Q.~.                  ",
"                    U.I.I.P.P.H.m.n.C.T.OX!.~.                  ",
"                                        +X+X.X.X                ",
"                                          @X X X                ",
"                                            oXXXXX              ",
"                                                                "
};
